<svg id="Ebene_1" data-name="Ebene 1" xmlns="http://www.w3.org/2000/svg" viewBox="0 0 1127.54 400"><defs><style>.cls-1,.cls-3,.cls-5,.cls-6,.cls-7{fill:none;}.cls-2{fill:#fff;}.cls-3,.cls-6,.cls-7{stroke:#34ad60;}.cls-3,.cls-5,.cls-6,.cls-7{stroke-miterlimit:10;stroke-width:3px;}.cls-4{fill:#34ad60;}.cls-5{stroke:#0a7743;}.cls-6{stroke-dasharray:17.86 17.86;}.cls-7{stroke-dasharray:17.89 17.89;}</style></defs><title>ebliq-logo</title><rect class="cls-1" width="1127.54" height="400"/><path class="cls-2" d="M651.28,256.25q-16.8,0-29-13.57t-12.21-33.74v-5.81q0-21.15,11.8-35T651,154.28q16.62,0,27.1,10.9t10.49,29.24V202H615v7q0,17.81,10.44,30.1t25.88,12.31q11,0,18.39-3a33.15,33.15,0,0,0,12.67-9l2.63,3.82a37.41,37.41,0,0,1-14.12,9.76A52.65,52.65,0,0,1,651.28,256.25ZM651,159.19a31.51,31.51,0,0,0-24.33,10.66q-9.72,10.68-11,26.65l.27.55H683.7v-3q0-15-9.08-24.92T651,159.19Z"/><path class="cls-2" d="M756.16,122.14q20.52,0,31.87,8.44T799.38,156q0,11.81-6.08,19.88T776.13,186a33.38,33.38,0,0,1,20.8,10.81,30.28,30.28,0,0,1,8.44,21.15q0,17.35-11.21,26.88t-29.65,9.54H706.58v-4.91h14.8V127h-14.8v-4.9h49.58Zm-29.88,62H758q18.07,0,27.25-7t9.17-21.48q0-14.16-9.67-21.38T756.16,127H726.28Zm0,4.9v60.38h38.23q16.71,0,26.33-8.26t9.63-23.06a26.89,26.89,0,0,0-9.22-20.62q-9.21-8.44-25.83-8.44Z"/><path class="cls-2" d="M825.89,117.6v-4.9H845.6V249.44h14.8v4.91H825.89v-4.91H840.7V117.6Z"/><path class="cls-2" d="M879.29,249.44h14.8V161h-14.8v-4.9H899v93.34h14.8v4.91h-34.5ZM899,125.22h-4.9V112.7H899Z"/><path class="cls-2" d="M936,205.13q0-23.34,9.8-37.09T973,154.28q11.53,0,19.93,5.22a38,38,0,0,1,13.4,14.39l.45-17.79h4.45V287.21H1026v4.91h-34.5v-4.91h14.8v-48.3a35.41,35.41,0,0,1-13.44,12.67,41.22,41.22,0,0,1-20.07,4.67q-17.34,0-27.1-13.26T936,207ZM941,207q0,20.34,8,32.32t23.65,12q13,0,21.48-5.95a32.57,32.57,0,0,0,12.12-15.94V184.61a42.5,42.5,0,0,0-11.44-17.93q-8-7.5-22-7.49-15.61,0-23.74,12.75T941,205.13Z"/><rect class="cls-3" x="97.89" y="109" width="51" height="181"/><rect class="cls-4" x="190.89" y="109" width="51" height="181"/><rect class="cls-5" x="471.39" y="109.5" width="51" height="181"/><polyline class="cls-3" points="427.39 280.5 427.39 290.5 417.39 290.5"/><line class="cls-6" x1="399.53" y1="290.5" x2="301.32" y2="290.5"/><polyline class="cls-3" points="292.39 290.5 282.39 290.5 282.39 280.5"/><line class="cls-7" x1="282.39" y1="262.61" x2="282.39" y2="128.44"/><polyline class="cls-3" points="282.39 119.5 282.39 109.5 292.39 109.5"/><line class="cls-6" x1="310.25" y1="109.5" x2="408.46" y2="109.5"/><polyline class="cls-3" points="417.39 109.5 427.39 109.5 427.39 119.5"/><line class="cls-7" x1="427.39" y1="137.39" x2="427.39" y2="271.56"/></svg>